<svg width="57" height="29" viewBox="0 0 57 29" fill="none" xmlns="http://www.w3.org/2000/svg">
<path d="M0.0700002 0.8H4.51V9.89H4.66C4.88 9.01 5.38 8.29 6.16 7.73C6.96 7.17 7.87 6.89 8.89 6.89C10.89 6.89 12.4 7.59 13.42 8.99C14.44 10.39 14.95 12.43 14.95 15.11C14.95 17.79 14.44 19.84 13.42 21.26C12.4 22.66 10.89 23.36 8.89 23.36C8.37 23.36 7.88 23.28 7.42 23.12C6.96 22.98 6.54 22.78 6.16 22.52C5.8 22.24 5.49 21.92 5.23 21.56C4.97 21.18 4.78 20.78 4.66 20.36H4.51V23H0.0700002V0.8ZM7.42 19.76C8.26 19.76 8.95 19.47 9.49 18.89C10.05 18.29 10.33 17.49 10.33 16.49V13.76C10.33 12.76 10.05 11.97 9.49 11.39C8.95 10.79 8.26 10.49 7.42 10.49C6.58 10.49 5.88 10.7 5.32 11.12C4.78 11.52 4.51 12.08 4.51 12.8V17.45C4.51 18.17 4.78 18.74 5.32 19.16C5.88 19.56 6.58 19.76 7.42 19.76ZM38.1006 23.36C36.9406 23.36 35.9006 23.17 34.9806 22.79C34.0806 22.41 33.3106 21.86 32.6706 21.14C32.0506 20.42 31.5706 19.55 31.2306 18.53C30.8906 17.51 30.7206 16.37 30.7206 15.11C30.7206 13.85 30.8906 12.71 31.2306 11.69C31.5706 10.67 32.0506 9.81 32.6706 9.11C33.3106 8.39 34.0806 7.84 34.9806 7.46C35.9006 7.08 36.9406 6.89 38.1006 6.89C39.2606 6.89 40.2906 7.08 41.1906 7.46C42.1106 7.84 42.8806 8.39 43.5006 9.11C44.1406 9.81 44.6306 10.67 44.9706 11.69C45.3106 12.71 45.4806 13.85 45.4806 15.11C45.4806 16.37 45.3106 17.51 44.9706 18.53C44.6306 19.55 44.1406 20.42 43.5006 21.14C42.8806 21.86 42.1106 22.41 41.1906 22.79C40.2906 23.17 39.2606 23.36 38.1006 23.36ZM38.1006 19.85C38.9806 19.85 39.6606 19.58 40.1406 19.04C40.6206 18.5 40.8606 17.73 40.8606 16.73V13.52C40.8606 12.52 40.6206 11.75 40.1406 11.21C39.6606 10.67 38.9806 10.4 38.1006 10.4C37.2206 10.4 36.5406 10.67 36.0606 11.21C35.5806 11.75 35.3406 12.52 35.3406 13.52V16.73C35.3406 17.73 35.5806 18.5 36.0606 19.04C36.5406 19.58 37.2206 19.85 38.1006 19.85ZM53.9884 23C52.4484 23 51.2784 22.61 50.4784 21.83C49.6984 21.05 49.3084 19.91 49.3084 18.41V10.7H47.0884V7.25H48.1984C48.7984 7.25 49.2084 7.11 49.4284 6.83C49.6484 6.53 49.7584 6.11 49.7584 5.57V2.99H53.7484V7.25H56.8684V10.7H53.7484V19.55H56.6284V23H53.9884Z" fill="black"/>
<path d="M15.6578 28.7V25.01H30.5378V28.7H15.6578Z" fill="#0069D0"/>
</svg>
